<svg aria-hidden="true" style="position: absolute; width: 0; height: 0; overflow: hidden;" version="1.1" xmlns="http://www.w3.org/2000/svg" xmlns:xlink="http://www.w3.org/1999/xlink">
<defs>
<symbol id="icon-httpie" viewBox="0 0 32 32">
<path d="M9.707 0c-3.84 0-7.051 3.039-7.129 6.873-0.001 0.038-0.001 0.082-0.001 0.127 0 3.875 3.14 7.016 7.014 7.017h5.631c0.222 0.004 0.4 0.185 0.4 0.408 0 0.164-0.096 0.305-0.235 0.37l-0.002 0.001-8.627 3.78c-2.483 1.117-4.18 3.57-4.18 6.418 0 0.017 0 0.034 0 0.051v-0.003c0.027 3.868 3.247 6.957 7.12 6.957h2.949c3.896 0 7.143-3.127 7.133-7.023-0.007-2.921-1.798-5.422-4.34-6.472l-0.047-0.017c-0.147-0.063-0.248-0.206-0.248-0.373 0-0.163 0.097-0.304 0.236-0.368l0.003-0.001 9.869-4.328c2.478-1.119 4.171-3.569 4.171-6.414 0-0.017-0-0.033-0-0.050v0.003c-0.028-3.868-3.256-6.953-7.125-6.953z"></path>
</symbol>
<symbol id="icon-svg" viewBox="0 0 32 32">
<path d="M16 0c-1.996 0-3.665 1.287-4.331 2.893-0.204 0.501-0.322 1.081-0.322 1.69 0 0.070 0.002 0.139 0.005 0.208l-0-0.010c-0.428-0.466-0.946-0.842-1.528-1.1l-0.029-0.012c-0.522-0.218-1.128-0.345-1.763-0.345-0.066 0-0.131 0.001-0.197 0.004l0.009-0c-1.235 0.040-2.343 0.552-3.156 1.36l0-0c-1.413 1.411-1.684 3.5-1.019 5.107 0.239 0.576 0.627 1.093 1.093 1.539-0.038-0.001-0.083-0.002-0.129-0.002-0.627 0-1.225 0.124-1.772 0.349l0.031-0.011c-1.607 0.665-2.893 2.333-2.893 4.331 0 1.996 1.287 3.665 2.893 4.331 0.583 0.241 1.232 0.333 1.885 0.315-0.476 0.451-0.867 0.976-1.109 1.56-0.665 1.607-0.393 3.696 1.019 5.107 1.411 1.413 3.5 1.684 5.107 1.019 0.583-0.241 1.107-0.635 1.557-1.109-0.019 0.653 0.076 1.303 0.317 1.885 0.665 1.607 2.333 2.893 4.331 2.893 1.996 0 3.665-1.287 4.331-2.893 0.203-0.501 0.322-1.081 0.322-1.69 0-0.070-0.002-0.139-0.005-0.208l0 0.010c0.451 0.475 0.973 0.871 1.557 1.112 1.607 0.665 3.696 0.393 5.107-1.019 1.413-1.411 1.684-3.5 1.019-5.107-0.27-0.611-0.646-1.129-1.109-1.554l-0.003-0.003c0.059 0.003 0.128 0.004 0.198 0.004 0.608 0 1.189-0.118 1.721-0.333l-0.031 0.011c1.607-0.665 2.893-2.333 2.893-4.331 0-1.996-1.287-3.665-2.893-4.331-0.499-0.202-1.078-0.319-1.685-0.319-0.071 0-0.141 0.002-0.211 0.005l0.010-0c0.476-0.451 0.867-0.976 1.109-1.56 0.665-1.607 0.393-3.696-1.019-5.107-0.813-0.808-1.921-1.32-3.149-1.36l-0.007-0c-0.056-0.002-0.122-0.004-0.187-0.004-0.636 0-1.242 0.127-1.794 0.357l0.031-0.011c-0.583 0.241-1.107 0.633-1.557 1.109 0.003-0.058 0.004-0.127 0.004-0.196 0-0.608-0.118-1.189-0.332-1.72l0.011 0.031c-0.665-1.607-2.333-2.893-4.331-2.893zM15.945 2.151c0.017-0 0.036-0.001 0.055-0.001 1.401 0 2.536 1.135 2.536 2.536 0 0.7-0.284 1.334-0.742 1.793v0 5.191l3.669-3.669c0-1.401 1.135-2.536 2.536-2.536s2.536 1.135 2.536 2.536c0 1.401-1.135 2.536-2.536 2.536v0l-3.669 3.669h5.191c0.459-0.458 1.092-0.741 1.792-0.741 1.401 0 2.536 1.135 2.536 2.536s-1.135 2.536-2.536 2.536c-0.7 0-1.333-0.283-1.792-0.741l0 0h-5.191l3.669 3.669c1.401 0 2.536 1.135 2.536 2.536s-1.135 2.536-2.536 2.536c-1.401 0-2.536-1.135-2.536-2.536v0l-3.669-3.669v5.191c0.458 0.459 0.741 1.092 0.741 1.792 0 1.401-1.135 2.536-2.536 2.536s-2.536-1.135-2.536-2.536c0-0.7 0.283-1.333 0.741-1.792l-0 0v-5.191l-3.669 3.669c0 1.401-1.135 2.536-2.536 2.536s-2.536-1.135-2.536-2.536c0-1.401 1.135-2.536 2.536-2.536v0l3.669-3.669h-5.191c-0.459 0.458-1.092 0.741-1.792 0.741-1.401 0-2.536-1.135-2.536-2.536s1.135-2.536 2.536-2.536c0.7 0 1.333 0.283 1.792 0.741l-0-0h5.191l-3.669-3.669c-1.401 0-2.536-1.135-2.536-2.536s1.135-2.536 2.536-2.536c1.401 0 2.536 1.135 2.536 2.536l3.669 3.669v-5.191c-0.459-0.459-0.742-1.093-0.742-1.793 0-1.382 1.105-2.505 2.479-2.535l0.003-0z"></path>
</symbol>
<symbol id="icon-postman" viewBox="0 0 32 32">
<path d="M18.036 0.132c-8.763-1.124-16.78 5.068-17.904 13.832-1.124 8.763 5.067 16.779 13.831 17.904 8.764 1.124 16.783-5.068 17.904-13.832 1.125-8.763-5.065-16.779-13.831-17.904zM21.331 10.112c-0.309 0.004-0.588 0.131-0.791 0.333v0l-5.937 5.937-1.267-1.267c5.852-5.835 6.907-5.891 7.995-5.004zM14.847 16.593l5.92-5.92c0.151-0.158 0.363-0.256 0.598-0.256 0.457 0 0.827 0.37 0.827 0.827 0 0.254-0.114 0.481-0.294 0.633l-0.001 0.001-6.265 5.5-0.784-0.784zM15.287 17.519l-1.467 0.317c-0.005 0.001-0.011 0.002-0.018 0.002-0.031 0-0.058-0.018-0.072-0.044l-0-0c-0.007-0.012-0.011-0.025-0.011-0.040 0-0.022 0.009-0.043 0.024-0.057v0l0.86-0.86 0.683 0.683zM11.549 16.907l1.563-1.563 1.172 1.171-2.639 0.568c-0.007 0.002-0.016 0.003-0.025 0.003-0.039 0-0.072-0.022-0.088-0.055l-0-0.001c-0.010-0.015-0.015-0.033-0.015-0.052 0-0.029 0.013-0.054 0.032-0.072l0-0zM6.688 24.984c-0.052-0.005-0.092-0.048-0.092-0.101 0-0.003 0-0.007 0-0.010l-0 0c0.003-0.024 0.013-0.045 0.029-0.061v0h0.003l1.261-1.261 1.629 1.629-2.831-0.196zM9.921 23.309c-0.098 0.052-0.164 0.153-0.164 0.27 0 0.025 0.003 0.050 0.009 0.073l-0-0.002 0.271 1.153c0.003 0.012 0.005 0.026 0.005 0.040 0 0.092-0.075 0.167-0.167 0.167-0.047 0-0.089-0.019-0.119-0.050l-0-0h-0.004l-1.637-1.639 5.016-5.011 2.427-0.524 1.165 1.165c-1.673 1.469-3.961 2.935-6.8 4.357zM16.96 18.739h-0.003l-1.119-1.119 6.265-5.5c0.058-0.052 0.11-0.107 0.157-0.167l0.002-0.003c-0.197 1.793-2.705 4.327-5.303 6.788zM21.836 10.125l-0.004-0.003c-0.437-0.439-0.707-1.045-0.707-1.714 0-1.342 1.088-2.429 2.429-2.429 0.594 0 1.138 0.213 1.561 0.567l-0.004-0.003-2.147 2.151c-0.029 0.029-0.047 0.069-0.047 0.113s0.018 0.084 0.047 0.113v0l1.663 1.663c-0.314 0.159-0.685 0.253-1.077 0.253-0.669 0-1.275-0.271-1.713-0.71v0zM25.273 10.125c-0.107 0.106-0.226 0.202-0.353 0.285l-0.009 0.005h-0.001l-1.609-1.609 2.044-2.044c0.881 0.96 0.849 2.443-0.072 3.363zM25.14 8.067c-0.048 0.035-0.079 0.091-0.079 0.154 0 0.020 0.003 0.039 0.008 0.056l-0-0.001c0.036 0.072 0.057 0.156 0.057 0.246 0 0.135-0.048 0.259-0.129 0.355l0.001-0.001c-0.025 0.032-0.040 0.072-0.040 0.116 0 0.059 0.028 0.112 0.071 0.146l0 0c0.031 0.024 0.069 0.039 0.112 0.040h0c0.057-0.001 0.107-0.026 0.141-0.066l0-0c0.133-0.159 0.213-0.365 0.213-0.589 0-0.15-0.036-0.292-0.1-0.417l0.002 0.005c-0.034-0.048-0.089-0.079-0.151-0.079-0.040 0-0.078 0.013-0.108 0.035l0.001-0z"></path>
</symbol>
<symbol id="icon-babel" viewBox="0 0 32 32">
<path d="M21.013 0c-2.137 0.196-4.959 0.951-8.423 2.292-0.93 0.683-1.994 1.363-3.1 1.974l-0.153 0.078 0.013 0.211c0.085 0 0.181-0.057 0.32-0.128 0.141-0.013 0.225 0.043 0.225 0.183l0.224-0.125 0.112-0.015 0.013 0.099c0.013 0.097-0.755 0.697-2.276 1.773l0.124 0.195-0.112 0.016-0.236-0.085c0 0.069-0.097 0.113-0.32 0.127l0.013 0.112 0.252 0.28c-0.122-0.002-0.237-0.028-0.342-0.073l0.006 0.002c-0.489 0.041-0.979 0.404-1.453 1.075l0.125 0.196c0.419-0.377 0.656-0.573 0.725-0.573l0.029 0.307c-0.069 0-0.181 0.056-0.32 0.125l0.265 0.393c0.481-0.528 1.027-0.986 1.628-1.364l0.032-0.019c0.307 0.084 0.461 0.167 0.461 0.279l0.224-0.013c1.633-1.215 3.253-2.083 4.859-2.627l0.016 0.211c-0.293 0.447-0.503 0.668-0.615 0.681 0.013 0.155 0.069 0.28 0.153 0.407 0.028 0.28-0.699 2.111-2.18 5.519-3.38 7.907-6.201 13.743-8.479 17.541 0 0.069 0.055 0.181 0.125 0.307 0.559-0.139 0.921-0.263 1.075-0.403l0.128-0.016 0.013 0.211 0.211-0.015 0.221-0.125c0 0.069 0.084 0.097 0.224 0.083l0.016 0.212c0.013 0.209-0.1 0.529-0.365 0.963-0.237 0.267-0.473 0.809-0.739 1.633l0.013 0.099 0.211-0.013c0.907-1.019 1.605-2.027 2.080-3.005 2.668-0.781 4.693-1.549 6.104-2.304 1.411-0.125 2.501-0.487 3.227-1.101l-0.015-0.112-0.532 0.153-0.125 0.013-0.013-0.112c1.035-0.155 1.76-0.391 2.152-0.699 2.025-1.564 3.547-2.667 4.58-3.323 3.2-2.347 4.708-4.609 4.527-6.76-0.013-0.224-0.727-1.104-2.109-2.64-0.028-0.293 0.46-0.713 1.437-1.272l2.781-2.445c0.613-0.796 0.992-2.080 1.117-3.853l-0.041-0.42c-0.112-1.243-1.008-2.249-2.712-3.019-1.004-0.684-2.807-1.047-5.404-1.088zM24.38 1.383c2.067 0.084 3.129 0.447 3.185 1.089l-0.084 0.211-3.101-1.3zM22.404 3.139c1.417-0.021 2.156 0.356 2.229 1.151l0.208-0.016-0.041-0.531 0.224-0.013c0.544 0.293 0.836 0.656 0.864 1.088 0.028 0.293-0.125 0.659-0.473 1.092-0.14 0.013-0.224-0.085-0.237-0.295l-0.224 0.016-0.055 0.627c-0.936 1.397-1.607 2.109-2.027 2.152-0.377 0.516-0.616 0.783-0.713 0.796-0.293 0.349-1.088 0.949-2.4 1.787-0.433 0.043-2.041 0.657-4.821 1.872-0.099-0.048-0.216-0.076-0.34-0.076-0.037 0-0.074 0.003-0.11 0.008l0.004-0-0.016-0.196c-0.027-0.405 0.143-0.908 0.547-1.523 0.211-1.147 0.447-1.803 0.712-1.956l2.317-5.208c-0.027-0.321 0.463-0.573 1.481-0.74l0.336-0.029 0.027 0.295c0.244-0.051 0.879-0.144 1.516-0.229l0.343-0.037c0.231-0.019 0.447-0.029 0.649-0.032zM27.229 3.659h0.036c0.185 0.016 0.384 0.351 0.595 0.992l0.013 0.196c-0.113 0.013-0.32-0.323-0.628-0.992l-0.016-0.196zM14.115 6.969h0.096l0.029 0.307c-0.099 0.013-0.236 0.155-0.404 0.448l-0.016-0.208c0.196-0.237 0.293-0.421 0.293-0.547zM7.467 7.139l0.013 0.096c-0.071 0-0.181 0.057-0.32 0.127l-0.113 0.013-0.013-0.195 0.433-0.041zM13.18 9.147l0.041 0.42-0.112 0.013-0.041-0.417 0.112-0.016zM12.913 9.903c-0.027 0.349-0.112 0.529-0.293 0.544l-0.112 0.013c0.125-0.237 0.196-0.404 0.183-0.529l0.224-0.028zM12.453 10.991l0.013 0.099-0.196 0.333-0.211 0.016-0.013-0.099c0.209-0.013 0.308-0.124 0.293-0.333l0.113-0.016zM11.976 11.971l-0.053 0.515-0.113 0.013-0.040-0.516 0.207-0.013zM23.305 12.344l0.46 0.283c0.013 0.139-0.056 0.223-0.195 0.236-0.196-0.125-0.349-0.181-0.461-0.181l-0.028-0.307 0.224-0.029zM14.435 13.532l0.016 0.196-0.435 0.044-0.013-0.197 0.432-0.043zM21.585 14.259c0.307 0.14 0.463 0.28 0.477 0.391l0.013 0.1c-0.293 0.027-0.56-0.127-0.811-0.461l0.32-0.029zM25.052 14.595c0.237 0.099 0.348 0.197 0.363 0.295l0.069 0.823c-0.097 0.224-0.195 0.336-0.307 0.336l-0.125-1.453zM19.459 14.681c1.12-0.019 1.976 0.245 2.563 0.807l0.040 0.42c-0.501 1.453-1.060 2.292-1.66 2.557l-2.795 2.221c-2.080 1.368-3.2 2.051-3.367 2.064-3.311 1.831-5.376 2.767-6.173 2.836l-0.127 0.013c0.112-0.391 1.58-3.407 4.429-9.077 1.257-0.112 3.24-0.7 5.936-1.76l0.656-0.056c0.171-0.013 0.337-0.023 0.497-0.027zM15.385 15.335l0.013 0.099-0.445 0.041-0.016-0.099 0.448-0.041zM8.417 22.095c-0.14 0.713-0.295 1.077-0.448 1.092l-0.013-0.1c-0.028-0.363 0.125-0.684 0.461-0.992zM17.885 22.543l0.013 0.196c0.013 0.084-0.307 0.348-0.935 0.809-1.859 0.908-2.947 1.536-3.269 1.857-2.011 0.697-3.003 1.132-2.989 1.299-1.787 0.713-2.96 1.231-3.517 1.552-0.127 0.013-0.321-0.041-0.573-0.153-0.028-0.363 0.124-0.659 0.487-0.896 0.307-0.027 0.617 0.015 0.896 0.141 0.335-0.168 0.907-0.365 1.732-0.56l-0.016-0.208-0.656 0.053c0.084-0.111 0.713-0.404 1.915-0.893l0.335-0.027 0.013 0.097c-0.559 0.043-0.88 0.223-0.951 0.516 0.013 0.125 0.085 0.196 0.224 0.183 0.405-0.28 0.615-0.432 0.615-0.475 0.811-0.153 3.032-1.327 6.677-3.492zM7.773 23.507l0.013 0.096c0.013 0.14-0.056 0.227-0.196 0.24l-0.013-0.099c-0.013-0.127 0.056-0.209 0.196-0.237zM12.8 24.756c0.119-0.003 0.185 0.065 0.197 0.175-0.265 0.028-0.755 0.237-1.495 0.656l-0.112 0.013-0.013-0.208c0.538-0.037 1.016-0.269 1.368-0.626l0-0c0.019-0.004 0.037-0.008 0.053-0.009zM7.915 26.413l0.013 0.109c-0.085 0-0.184 0.057-0.324 0.127l-0.208 0.013c-0.013-0.097 0.043-0.181 0.183-0.224l0.336-0.027zM5.357 27.684l0.236 0.096c-0.084 0.628-0.264 0.951-0.587 0.979-0.182-0.089-0.395-0.141-0.621-0.141-0.022 0-0.044 0-0.066 0.002l0.003-0-0.028-0.307c-0.013-0.127 0.057-0.196 0.211-0.237 0.14-0.013 0.223 0.081 0.237 0.291 0.376-0.46 0.587-0.681 0.613-0.681z"></path>
</symbol>
<symbol id="icon-googleauthenticator" viewBox="0 0 32 32">
<path d="M9.276 1.784c-0.472 0.012-0.91 0.144-1.289 0.366l0.013-0.007c-1.289 0.744-1.731 2.393-0.987 3.682l4.318 7.479h-8.635c-1.489 0-2.695 1.207-2.695 2.695s1.207 2.695 2.695 2.695h8.635l-4.318 7.479c-0.744 1.289-0.302 2.938 0.987 3.682s2.938 0.302 3.682-0.987l4.318-7.476 4.318 7.477c0.744 1.289 2.393 1.731 3.682 0.987s1.731-2.393 0.987-3.682l-4.318-7.479h8.635c1.489-0 2.695-1.207 2.695-2.695s-1.207-2.695-2.695-2.695h-8.635l4.318-7.479c0.744-1.289 0.302-2.938-0.987-3.682s-2.938-0.302-3.682 0.987l-4.318 7.476-4.318-7.476c-0.512-0.886-1.45-1.371-2.406-1.346zM22.555 3.125c0.258-0.017 0.524 0.042 0.771 0.185 0.659 0.381 0.875 1.182 0.495 1.841l-5.484 9.5h10.969c0.761 0 1.349 0.588 1.349 1.349s-0.588 1.349-1.349 1.349h-9.411l-3.115-5.396 4.706-8.148c0.238-0.412 0.641-0.651 1.070-0.68zM9.31 3.13c0.478-0.012 0.944 0.221 1.206 0.674l4.706 8.148-3.115 5.396h-9.411c-0.761 0-1.349-0.588-1.349-1.349s0.588-1.349 1.349-1.349h10.969l-5.484-9.5c-0.381-0.659-0.164-1.461 0.495-1.841 0.182-0.108 0.401-0.174 0.634-0.18l0.002-0zM12.888 18.695h6.224l4.708 8.154c0.381 0.659 0.164 1.461-0.495 1.841s-1.461 0.164-1.841-0.495l-5.484-9.495-5.484 9.495c-0.38 0.659-1.182 0.875-1.841 0.495s-0.875-1.182-0.495-1.841z"></path>
</symbol>
<symbol id="icon-json" viewBox="0 0 32 32">
<path d="M16.057 31.957c0.639-0.005 1.271-0.039 1.901-0.125 1.561-0.207 2.976-0.611 4.296-1.19l-0.101 0.040c1.96-0.853 3.636-1.995 5.060-3.392l-0.003 0.003c1.314-1.289 2.405-2.8 3.212-4.474l0.042-0.096c0.65-1.347 1.127-2.91 1.351-4.553l0.009-0.081c0.199-1.547 0.18-3.128-0.060-4.665-0.223-1.394-0.591-2.644-1.097-3.821l0.040 0.104c-0.36-0.835-0.741-1.544-1.174-2.215l0.035 0.059c-1.557-2.449-3.815-4.419-6.413-5.733-0.817-0.429-1.776-0.823-2.775-1.128l-0.121-0.032h-0.007c0.159 0.084 0.32 0.176 0.46 0.268 0.16 0.099 0.319 0.195 0.468 0.3 0.782 0.53 1.464 1.114 2.072 1.766l0.006 0.007c1.417 1.527 2.396 3.397 2.957 5.388 0.379 1.309 0.579 2.664 0.66 4.023 0.059 0.991 0.059 1.988-0.063 2.972-0.199 1.693-0.739 3.347-1.637 4.795-0.679 1.095-1.524 2.017-2.512 2.76l-0.026 0.018c-1.659 1.237-3.836 1.976-5.915 1.485-0.382-0.091-0.714-0.209-1.029-0.358l0.032 0.014c-0.398-0.183-0.739-0.383-1.057-0.613l0.019 0.013c-0.632-0.426-1.177-0.912-1.65-1.462l-0.009-0.011c-0.563-0.667-1.033-1.437-1.378-2.272l-0.021-0.058c-0.399-1.003-0.639-2.164-0.659-3.379l-0-0.008c-0.040-1.697 0.3-3.404 1.139-4.893 0.579-1.010 1.321-1.86 2.198-2.543l0.019-0.014c0.3-0.237 0.619-0.444 0.939-0.639l0.021-0.009c-0.457-0.109-0.982-0.172-1.522-0.172-0.141 0-0.28 0.004-0.419 0.013l0.019-0.001c-0.599 0.041-1.156 0.155-1.684 0.334l0.047-0.014c-0.479 0.16-0.939 0.36-1.359 0.6-0.373 0.216-0.693 0.433-0.995 0.672l0.017-0.013c-0.281 0.24-0.56 0.48-0.82 0.74-1.497 1.537-2.357 3.576-2.696 5.675-0.2 1.297-0.2 2.613-0.121 3.933 0.14 1.86 0.521 3.716 1.26 5.416 0.481 1.11 1.084 2.065 1.81 2.913l-0.013-0.015c1.118 1.286 2.517 2.299 4.104 2.947l0.072 0.026c0.821 0.346 1.773 0.6 2.768 0.715l0.049 0.005c0.099 0.020 0.199 0.020 0.279 0.020zM12.145 31.427c-0.239-0.103-0.436-0.205-0.625-0.318l0.025 0.014c-1.042-0.568-1.937-1.249-2.715-2.043l-0.002-0.002c-1.459-1.516-2.436-3.421-2.996-5.44-0.347-1.245-0.583-2.692-0.658-4.181l-0.002-0.048c-0.021-0.309-0.033-0.669-0.033-1.032 0-0.614 0.034-1.221 0.101-1.818l-0.007 0.073c0.18-1.676 0.66-3.335 1.499-4.773 0.621-1.082 1.416-1.991 2.357-2.722l0.021-0.016c0.625-0.483 1.345-0.889 2.12-1.181l0.057-0.019c0.724-0.271 1.561-0.427 2.434-0.427 0.809 0 1.587 0.134 2.312 0.382l-0.050-0.015c0.039 0 0.039 0 0.060 0.040 0.020 0.020 0.060 0.020 0.080 0.040 0.060 0.021 0.139 0.060 0.22 0.099 0.319 0.16 0.639 0.361 0.939 0.56 1.201 0.848 2.153 1.973 2.774 3.285l0.022 0.051c0.56 1.219 0.82 2.579 0.841 3.917 0.019 1.439-0.24 2.876-0.86 4.195-0.775 1.605-1.984 2.898-3.476 3.754l-0.042 0.022c0.12 0.040 0.24 0.060 0.361 0.1 0.3 0.059 0.599 0.099 0.917 0.099 1.957 0.060 3.856-0.88 5.253-2.196 0.26-0.24 0.5-0.5 0.72-0.78 0.3-0.36 0.58-0.72 0.819-1.097 0.319-0.5 0.58-1 0.819-1.539 0.28-0.634 0.515-1.377 0.667-2.15l0.011-0.069c0.261-1.339 0.281-2.696 0.199-4.035-0.18-2.696-0.897-5.393-2.456-7.632-0.253-0.363-0.496-0.675-0.753-0.975l0.013 0.016c-0.44-0.496-0.903-0.947-1.397-1.362l-0.020-0.017c-0.532-0.44-1.127-0.845-1.758-1.19l-0.059-0.030c-0.635-0.301-1.385-0.573-2.164-0.777l-0.092-0.020-0.4-0.080c-0.279-0.040-0.56-0.059-0.845-0.080-0.149-0.007-0.324-0.011-0.499-0.011-0.301 0-0.598 0.012-0.893 0.035l0.039-0.002c-0.939 0.060-1.883 0.213-2.816 0.449-4.475 1.155-8.389 4.273-10.473 8.412-0.623 1.206-1.114 2.604-1.4 4.075l-0.016 0.1c-0.177 0.885-0.278 1.903-0.278 2.945 0 0.736 0.051 1.461 0.148 2.171l-0.009-0.082c0.16 1.36 0.499 2.697 1.037 3.969 0.303 0.76 0.681 1.499 1.1 2.197 1.459 2.377 3.577 4.315 6.013 5.653 0.917 0.52 1.877 0.92 2.876 1.259 0.301 0.099 0.6 0.2 0.919 0.28z"></path>
</symbol>
<symbol id="icon-googledrive" viewBox="0 0 32 32">
<path d="M16.013 1.98c-2.776 0-5.005 0.027-4.991 0.063 0.013 0.027 2.277 4.001 5.032 8.827l5.013 8.765h5.013c2.775 0 5.004-0.027 4.989-0.063-0.007-0.027-2.277-4.001-5.033-8.827l-5.013-8.765zM9.667 4.287c1.066-2.18-0.538 0.572-2.131 3.333l-2.709 5.092-4.827 8.445 2.52 4.397 2.513 4.396 9.651-16.887-2.507-4.383c-1.377-2.409-2.504-4.388-2.511-4.396zM12.679 21.157l-0.271 0.464c-0.152 0.264-1.28 2.229-2.507 4.383-2.202 4.044-2.953 5.339-3.708 6.63l1.444-2.67c-0.013 0.035 4.32 0.056 9.629 0.056h9.659l2.395-4.209c1.323-2.312 2.467-4.307 2.541-4.431l0.139-0.223h-9.665z"></path>
</symbol>
<symbol id="icon-handlebarsdotjs" viewBox="0 0 32 32">
<path d="M12.133 6.597c-0.031-0.001-0.067-0.001-0.104-0.001-0.15 0-0.299 0.007-0.445 0.021l0.019-0.001c-3.176 0.251-4.439 1.884-5.2 2.584-0.763 0.7-2.208 2.351-3.168 2.060-0.961-0.289-1.232-1.476-0.893-1.841s0.605-0.3 0.817 0c0.129 0.24 0.193 0.511 0.187 0.783 0.273-0.227 0.477-0.529 0.581-0.874l0.003-0.013c0.044-0.112 0.070-0.241 0.070-0.377 0-0.441-0.27-0.818-0.653-0.976l-0.007-0.003c-1.733-0.879-2.852 0.685-3.013 1.049-0.163 0.364-0.448 0.943-0.267 2.26 0.18 1.319 0.816 2.536 2.805 3.015 0.573 0.139 1.23 0.219 1.907 0.219 1.364 0 2.653-0.325 3.792-0.901l-0.048 0.022 5.88-2.453c0.197-0.050 0.449-0.097 0.705-0.131l0.037-0.004v13.152c0 0.675 0.421 1.217 0.944 1.217 0.521 0 0.943-0.543 0.943-1.217v-13.133c0.241 0.038 0.439 0.079 0.632 0.128l-0.050-0.011 5.88 2.453c1.091 0.554 2.379 0.878 3.742 0.878 0.677 0 1.335-0.080 1.966-0.231l-0.057 0.012c1.989-0.48 2.625-1.696 2.807-3.013 0.18-1.319-0.107-1.897-0.267-2.261-0.163-0.364-1.283-1.928-3.015-1.049-0.39 0.161-0.66 0.538-0.66 0.979 0 0.136 0.026 0.265 0.072 0.384l-0.002-0.007c0.101 0.347 0.305 0.656 0.583 0.887-0-0.010-0-0.021-0-0.033 0-0.275 0.070-0.533 0.192-0.758l-0.004 0.008c0.212-0.3 0.479-0.365 0.817 0s0.068 1.552-0.893 1.843c-0.96 0.289-2.405-1.36-3.168-2.061-0.761-0.7-2.024-2.333-5.2-2.584-0.128-0.013-0.278-0.020-0.428-0.020-1.683 0-3.156 0.904-3.957 2.253l-0.012 0.021c-0.796-1.342-2.223-2.236-3.861-2.273l-0.005-0zM28.653 10.201v0.005l0.008 0.003c-0.003-0.003-0.005-0.005-0.008-0.005zM3.347 10.201c-0.003 0.003-0.005 0.005-0.008 0.005l0.008-0.001v-0.005z"></path>
</symbol>
<symbol id="icon-vite" viewBox="0 0 32 32">
<path d="M11.048 14.104l0.683-11.543c0.012-0.187 0.148-0.34 0.327-0.376l0.003-0 11.109-2.177c0.024-0.005 0.051-0.008 0.079-0.008 0.225 0 0.408 0.183 0.408 0.408 0 0.040-0.006 0.079-0.017 0.116l0.001-0.003-2.077 7.204c-0.010 0.034-0.016 0.073-0.016 0.113 0 0.225 0.183 0.408 0.408 0.408 0.027 0 0.054-0.003 0.080-0.008l-0.003 0 3.184-0.613c0.024-0.005 0.051-0.008 0.078-0.008 0.225 0 0.408 0.183 0.408 0.408 0 0.067-0.016 0.13-0.045 0.186l0.001-0.002-9.053 18.067-0.164 0.253c-0.070 0.113-0.193 0.187-0.334 0.187-0.001 0-0.001 0-0.002 0h0c-0.236 0-0.467-0.203-0.407-0.492l1.46-7.068c0.005-0.025 0.008-0.053 0.008-0.083 0-0.225-0.183-0.408-0.408-0.408-0.042 0-0.083 0.006-0.121 0.018l0.003-0.001-1.911 0.58c-0.036 0.011-0.076 0.018-0.119 0.018-0.225 0-0.408-0.183-0.408-0.408 0-0.029 0.003-0.057 0.009-0.084l-0 0.003 0.92-4.5c0.005-0.025 0.009-0.054 0.009-0.083 0-0.225-0.183-0.408-0.408-0.408-0.033 0-0.066 0.004-0.097 0.011l0.003-0.001-3.093 0.715c-0.027 0.007-0.059 0.010-0.091 0.010-0.225 0-0.408-0.183-0.408-0.408 0-0.008 0-0.017 0.001-0.025l-0 0.001zM31.016 3.536l-7.971 1.451-0.725 2.516 2.769-0.533c0.063-0.013 0.135-0.021 0.209-0.021 0.384 0 0.721 0.203 0.909 0.508l0.003 0.005c0.101 0.16 0.16 0.354 0.16 0.562 0 0.176-0.042 0.341-0.118 0.488l0.003-0.006-9.072 18.101-0.020 0.031-0.163 0.253c-0.192 0.297-0.521 0.492-0.896 0.493h-0c-0.34-0.002-0.643-0.158-0.844-0.401l-0.002-0.002c-0.148-0.181-0.237-0.415-0.237-0.67 0-0.079 0.009-0.156 0.025-0.23l-0.001 0.007 1.372-6.641-1.493 0.453c-0.093 0.029-0.2 0.046-0.312 0.046-0.336 0-0.636-0.153-0.834-0.393l-0.001-0.002c-0.151-0.183-0.242-0.42-0.242-0.677 0-0.076 0.008-0.151 0.023-0.223l-0.001 0.007 0.84-4.107-2.703 0.624c-0.072 0.017-0.155 0.027-0.241 0.027-0.308 0-0.587-0.13-0.783-0.337l-0-0.001c-0.18-0.193-0.291-0.452-0.291-0.738 0-0.022 0.001-0.044 0.002-0.065l-0 0.003 0.519-8.76-9.92-1.773c-0.044-0.008-0.094-0.013-0.145-0.013-0.451 0-0.816 0.365-0.816 0.816 0 0.149 0.040 0.289 0.11 0.409l-0.002-0.004 15.313 26.849c0.143 0.248 0.407 0.412 0.709 0.412 0.304 0 0.57-0.167 0.71-0.414l0.002-0.004 15.013-26.847c0.065-0.114 0.103-0.251 0.103-0.397 0-0.451-0.365-0.816-0.816-0.816-0.052 0-0.102 0.005-0.151 0.014l0.005-0.001z"></path>
</symbol>
<symbol id="icon-webpack" viewBox="0 0 32 32">
<path d="M29.598 24.664l-13.027 7.336v-5.714l8.116-4.445 4.91 2.823zM30.489 23.861v-15.343l-4.767 2.739v9.861zM2.402 24.664l13.027 7.336v-5.714l-8.116-4.445-4.91 2.823zM1.511 23.861v-15.343l4.767 2.739v9.861zM2.068 7.525l13.36-7.525v5.525l-8.624 4.724zM29.932 7.525l-13.36-7.525v5.525l8.624 4.725 4.736-2.724zM15.428 24.987l-8.007-4.383v-8.686l8.007 4.603v8.465zM16.572 24.987l8.007-4.383v-8.686l-8.007 4.603zM7.963 10.913l8.038-4.402 8.039 4.402-8.038 4.622z"></path>
</symbol>
<symbol id="icon-mysql" viewBox="0 0 32 32">
<path d="M21.873 7.335c-0.153 0-0.257 0.019-0.365 0.044v0.017h0.019c0.072 0.139 0.195 0.24 0.285 0.364 0.072 0.143 0.133 0.285 0.205 0.427l0.019-0.020c0.125-0.088 0.187-0.229 0.187-0.444-0.053-0.063-0.061-0.125-0.107-0.187-0.053-0.089-0.168-0.133-0.24-0.204zM7.693 24.927h-1.236c-0.039-2.126-0.168-4.166-0.386-6.18l0.026 0.3h-0.011l-1.88 5.88h-0.94l-1.867-5.88h-0.013c-0.136 1.698-0.23 3.746-0.259 5.808l-0.001 0.072h-1.127c0.073-2.621 0.256-5.080 0.547-7.373h1.533l1.78 5.419h0.011l1.796-5.419h1.46c0.323 2.687 0.512 5.147 0.571 7.373zM13.049 19.487c-0.504 2.727-1.168 4.711-1.989 5.947-0.643 0.955-1.347 1.431-2.111 1.431-0.204 0-0.453-0.061-0.755-0.184v-0.659c0.147 0.023 0.32 0.035 0.515 0.035 0.357 0 0.644-0.1 0.863-0.296 0.263-0.24 0.393-0.509 0.393-0.807 0-0.207-0.103-0.627-0.307-1.259l-1.352-4.208h1.213l0.969 3.147c0.219 0.715 0.311 1.213 0.273 1.497 0.533-1.419 0.904-2.969 1.113-4.644zM29.483 24.927h-3.507v-7.373h1.18v6.467h2.327zM25.056 25.107l-1.355-0.667c0.12-0.101 0.236-0.211 0.34-0.333 0.577-0.675 0.864-1.677 0.864-3.004 0-2.44-0.957-3.661-2.873-3.661-0.939 0-1.672 0.309-2.2 0.929-0.573 0.677-0.861 1.675-0.861 2.993 0 1.296 0.253 2.248 0.765 2.853 0.467 0.547 1.169 0.82 2.111 0.82 0.352 0 0.675-0.044 0.967-0.131l1.767 1.029 0.48-0.829zM20.667 23.451c-0.3-0.48-0.449-1.253-0.449-2.315 0-1.857 0.565-2.787 1.693-2.787 0.591 0 1.027 0.223 1.303 0.667 0.299 0.483 0.448 1.248 0.448 2.297 0 1.872-0.565 2.811-1.693 2.811-0.593 0-1.027-0.223-1.304-0.667zM18.456 22.884c0 0.627-0.229 1.141-0.688 1.541s-1.071 0.6-1.845 0.6c-0.724 0-1.419-0.229-2.097-0.687l0.316-0.635c0.584 0.293 1.111 0.437 1.587 0.437 0.443 0 0.791-0.097 1.044-0.293 0.244-0.185 0.4-0.476 0.4-0.803 0-0.006-0-0.012-0-0.018v0.001c0-0.44-0.307-0.813-0.864-1.127-0.517-0.284-1.551-0.876-1.551-0.876-0.563-0.409-0.843-0.848-0.843-1.569 0-0.6 0.209-1.080 0.627-1.447 0.42-0.371 0.96-0.553 1.627-0.553 0.683 0 1.307 0.181 1.867 0.547l-0.284 0.635c-0.417-0.188-0.904-0.3-1.416-0.307l-0.002-0c-0.377 0-0.669 0.091-0.872 0.275-0.201 0.168-0.329 0.418-0.331 0.698v0c0 0.437 0.312 0.813 0.888 1.133 0.524 0.287 1.583 0.893 1.583 0.893 0.577 0.407 0.864 0.84 0.864 1.557zM30.965 15.081c-0.713-0.019-1.267 0.053-1.729 0.251-0.133 0.053-0.347 0.053-0.365 0.223 0.073 0.071 0.084 0.187 0.147 0.285 0.107 0.179 0.291 0.417 0.461 0.543 0.187 0.147 0.373 0.288 0.569 0.413 0.347 0.213 0.74 0.34 1.080 0.555 0.193 0.125 0.391 0.284 0.587 0.417 0.097 0.067 0.16 0.187 0.285 0.229v-0.027c-0.061-0.080-0.080-0.196-0.14-0.285-0.089-0.089-0.179-0.169-0.267-0.257-0.265-0.347-0.57-0.644-0.914-0.891l-0.013-0.009c-0.285-0.195-0.909-0.467-1.027-0.793l-0.017-0.019c0.195-0.017 0.427-0.088 0.613-0.141 0.303-0.080 0.58-0.063 0.893-0.141 0.141-0.036 0.284-0.080 0.427-0.125v-0.080c-0.16-0.16-0.28-0.377-0.445-0.527-0.437-0.384-0.918-0.745-1.424-1.069l-0.048-0.028c-0.28-0.179-0.635-0.293-0.929-0.445-0.107-0.053-0.285-0.080-0.347-0.169-0.16-0.195-0.253-0.453-0.367-0.685-0.2-0.37-0.444-0.879-0.67-1.399l-0.059-0.152c-0.16-0.349-0.257-0.697-0.453-1.017-0.92-1.516-1.916-2.435-3.448-3.333-0.329-0.187-0.724-0.267-1.141-0.365-0.223-0.011-0.445-0.027-0.667-0.036-0.147-0.063-0.288-0.232-0.413-0.313-0.507-0.32-1.819-1.013-2.192-0.096-0.24 0.579 0.356 1.149 0.563 1.443 0.153 0.204 0.347 0.437 0.453 0.667 0.063 0.155 0.080 0.313 0.143 0.475 0.141 0.392 0.276 0.829 0.463 1.196 0.097 0.187 0.204 0.383 0.329 0.551 0.072 0.097 0.195 0.143 0.223 0.303-0.125 0.181-0.133 0.445-0.205 0.667-0.32 1.009-0.195 2.257 0.259 3 0.143 0.221 0.483 0.712 0.937 0.524 0.4-0.16 0.312-0.667 0.427-1.113 0.027-0.107 0.009-0.177 0.064-0.249v0.020c0.125 0.251 0.251 0.489 0.365 0.74 0.275 0.437 0.755 0.891 1.156 1.193 0.213 0.16 0.383 0.437 0.649 0.536v-0.027h-0.020c-0.057-0.077-0.133-0.115-0.205-0.177-0.166-0.163-0.319-0.337-0.458-0.522l-0.008-0.012c-0.347-0.469-0.678-1.001-0.965-1.559l-0.031-0.066c-0.147-0.28-0.269-0.581-0.387-0.857-0.053-0.107-0.053-0.267-0.143-0.32-0.133 0.195-0.329 0.364-0.427 0.604-0.169 0.384-0.187 0.856-0.251 1.347-0.036 0.009-0.019 0-0.036 0.019-0.285-0.069-0.383-0.365-0.489-0.613-0.267-0.633-0.311-1.651-0.080-2.38 0.063-0.187 0.329-0.776 0.223-0.955-0.056-0.169-0.232-0.267-0.329-0.404-0.116-0.164-0.223-0.351-0.312-0.548l-0.008-0.021c-0.213-0.499-0.32-1.051-0.552-1.549-0.107-0.231-0.293-0.472-0.445-0.684-0.169-0.24-0.356-0.409-0.491-0.693-0.044-0.097-0.107-0.259-0.036-0.365 0.019-0.072 0.056-0.1 0.125-0.12 0.117-0.096 0.447 0.029 0.563 0.083 0.329 0.133 0.607 0.259 0.883 0.445 0.125 0.088 0.26 0.257 0.42 0.301h0.187c0.285 0.063 0.607 0.019 0.873 0.097 0.473 0.152 0.9 0.373 1.283 0.613 1.178 0.76 2.121 1.79 2.759 3.004l0.021 0.044c0.107 0.205 0.153 0.393 0.251 0.607 0.187 0.44 0.417 0.884 0.607 1.309 0.187 0.42 0.367 0.848 0.635 1.196 0.133 0.187 0.669 0.284 0.909 0.381 0.177 0.080 0.453 0.153 0.613 0.251 0.307 0.187 0.605 0.4 0.893 0.605 0.147 0.101 0.591 0.324 0.617 0.504z"></path>
</symbol>
<symbol id="icon-php" viewBox="0 0 32 32">
<path d="M9.347 13.609h-1.259l-0.687 3.531h1.117c0.741 0 1.293-0.14 1.656-0.419 0.363-0.28 0.607-0.745 0.733-1.399 0.123-0.627 0.067-1.069-0.165-1.327-0.233-0.257-0.697-0.387-1.396-0.387zM16 7.584c-8.836 0-16 3.768-16 8.416s7.164 8.417 16 8.417 16-3.769 16-8.417c0-4.648-7.164-8.416-16-8.416zM11.653 17.519c-0.348 0.333-0.767 0.584-1.223 0.735-0.448 0.144-1.020 0.219-1.713 0.219h-1.575l-0.436 2.241h-1.837l1.64-8.435h3.533c1.063 0 1.837 0.279 2.325 0.837 0.488 0.557 0.635 1.336 0.44 2.336-0.082 0.425-0.223 0.803-0.416 1.148l0.010-0.019c-0.191 0.34-0.44 0.653-0.748 0.937zM17.019 18.472l0.724-3.732c0.084-0.424 0.052-0.715-0.091-0.868-0.143-0.155-0.448-0.232-0.916-0.232h-1.456l-0.939 4.833h-1.824l1.64-8.436h1.823l-0.436 2.243h1.624c1.023 0 1.727 0.179 2.115 0.535s0.504 0.933 0.351 1.732l-0.763 3.925h-1.852zM27.148 15.452c-0.080 0.425-0.221 0.803-0.416 1.148l0.010-0.018c-0.191 0.34-0.44 0.653-0.748 0.937-0.338 0.323-0.746 0.574-1.2 0.728l-0.023 0.007c-0.448 0.144-1.020 0.219-1.715 0.219h-1.573l-0.436 2.243h-1.837l1.64-8.435h3.532c1.063 0 1.837 0.279 2.325 0.837 0.488 0.556 0.636 1.335 0.441 2.335zM23.688 13.609h-1.257l-0.688 3.531h1.117c0.743 0 1.295-0.14 1.656-0.419 0.363-0.28 0.607-0.745 0.735-1.399 0.123-0.627 0.065-1.069-0.167-1.327s-0.699-0.387-1.396-0.387z"></path>
</symbol>
<symbol id="icon-trello" viewBox="0 0 32 32">
<path d="M28.196 0h-24.392c-2.099 0.005-3.799 1.705-3.804 3.804v24.392c0.005 2.099 1.705 3.799 3.804 3.804h24.392c2.099-0.005 3.799-1.705 3.804-3.803v-24.392c-0.005-2.099-1.705-3.799-3.803-3.804h-0zM13.787 23.049c0 0.702-0.569 1.271-1.271 1.271v0h-5.333c-0.702 0-1.271-0.569-1.272-1.271v-15.876c0-0.702 0.569-1.271 1.271-1.271 0 0 0.001 0 0.001 0h5.333c0.701 0.001 1.27 0.569 1.271 1.271v0zM26.097 15.76c0 0.001 0 0.003 0 0.004 0 0.695-0.564 1.259-1.259 1.259-0.004 0-0.008-0-0.013-0h-5.333c-0.002 0-0.005 0-0.008 0-0.697 0-1.263-0.565-1.263-1.263 0 0 0-0 0-0v0-8.587c0-0.702 0.569-1.271 1.271-1.271v0h5.333c0.701 0.001 1.27 0.569 1.271 1.271v0z"></path>
</symbol>
<symbol id="icon-figma" viewBox="0 0 32 32">
<path d="M21.136 11.975h-6.117v-11.975h6.117c3.301 0 5.987 2.685 5.987 5.987s-2.685 5.988-5.987 5.988zM16.98 10.013h4.156c2.22 0 4.025-1.807 4.025-4.025s-1.807-4.025-4.025-4.025h-4.156v8.051zM16.98 11.975h-6.116c-3.301 0-5.987-2.685-5.987-5.987s2.685-5.988 5.987-5.988h6.117v11.975zM10.864 1.961c-2.22 0-4.025 1.807-4.025 4.025s1.805 4.027 4.025 4.027h4.156v-8.052h-4.156zM16.98 21.987h-6.116c-3.301 0-5.987-2.685-5.987-5.987s2.685-5.987 5.987-5.987h6.117v11.973zM10.864 11.975c-2.22 0-4.025 1.807-4.025 4.025s1.807 4.025 4.025 4.025h4.156v-8.051h-4.156zM10.896 32c-3.319 0-6.020-2.685-6.020-5.987s2.685-5.987 5.987-5.987h6.117v5.921c0 3.337-2.729 6.052-6.084 6.052zM10.864 21.987c-2.222 0.003-4.022 1.803-4.025 4.025v0c0 2.22 1.82 4.025 4.059 4.025 2.273 0 4.124-1.835 4.124-4.091v-3.96h-4.157zM21.136 21.987h-0.131c-3.301 0-5.987-2.685-5.987-5.987s2.685-5.987 5.987-5.987h0.131c3.301 0 5.987 2.685 5.987 5.987s-2.685 5.987-5.987 5.987zM21.007 11.975c-2.22 0-4.025 1.807-4.025 4.025s1.807 4.025 4.025 4.025h0.131c2.22 0 4.025-1.807 4.025-4.025s-1.807-4.025-4.025-4.025h-0.131z"></path>
</symbol>
<symbol id="icon-swagger" viewBox="0 0 32 32">
<path d="M16 0c-8.823 0-16 7.177-16 16s7.177 16 16 16c8.821 0 16-7.177 16-16s-7.179-16-16-16zM16 1.525c7.993 0 14.475 6.48 14.475 14.475 0 7.993-6.48 14.475-14.475 14.475s-14.475-6.48-14.475-14.475c0-7.995 6.48-14.475 14.475-14.475zM11.16 7.824c-0.052-0.001-0.114-0.002-0.176-0.002-0.136 0-0.272 0.003-0.407 0.009l0.019-0.001c-1.311 0.075-2.097 0.689-2.313 1.963-0.153 0.887-0.128 1.797-0.191 2.689-0.017 0.467-0.067 0.929-0.153 1.384-0.179 0.812-0.529 1.064-1.355 1.107-0.13 0.016-0.24 0.036-0.349 0.060l0.024-0.005v1.951c1.501 0.073 1.704 0.603 1.827 2.172 0.044 0.572-0.017 1.144 0.020 1.716 0.024 0.541 0.097 1.077 0.208 1.6 0.345 1.433 1.743 1.913 3.433 1.624v-1.711c-0.271 0-0.511 0.007-0.744 0-0.573-0.017-0.788-0.16-0.843-0.713-0.075-0.713-0.056-1.44-0.1-2.16-0.085-1.335-0.233-2.651-1.537-3.5 0.671-0.493 1.157-1.083 1.311-1.864 0.111-0.547 0.179-1.095 0.221-1.649 0.037-0.553-0.031-1.12 0.019-1.667 0.080-0.887 0.136-1.249 1.2-1.213 0.16 0 0.313-0.023 0.492-0.036v-1.747c-0.213 0-0.413-0.005-0.605-0.008zM21.284 7.836c-0.038-0.001-0.082-0.001-0.127-0.001-0.338 0-0.669 0.030-0.991 0.086l0.034-0.005v1.699c0.327 0 0.579 0 0.831 0.007 0.437 0.005 0.769 0.173 0.813 0.659 0.043 0.443 0.041 0.892 0.085 1.341 0.087 0.892 0.135 1.796 0.289 2.676 0.136 0.725 0.633 1.267 1.255 1.711-1.089 0.732-1.409 1.777-1.464 2.953-0.031 0.805-0.049 1.617-0.092 2.429-0.037 0.739-0.296 0.979-1.040 0.997-0.209 0.005-0.413 0.024-0.645 0.037v1.74c0.436 0 0.836 0.025 1.236 0 1.243-0.073 1.993-0.676 2.24-1.883 0.104-0.664 0.165-1.333 0.184-2.005 0.043-0.615 0.037-1.236 0.099-1.845 0.092-0.953 0.529-1.347 1.483-1.409 0.099-0.012 0.189-0.034 0.274-0.064l-0.009 0.003v-1.951c-0.16-0.019-0.272-0.036-0.388-0.043-0.715-0.031-1.072-0.271-1.249-0.947-0.104-0.388-0.176-0.841-0.202-1.306l-0.001-0.018c-0.049-0.824-0.044-1.655-0.099-2.48-0.107-1.589-1.059-2.337-2.516-2.381zM12.097 14.876c-0 0-0.001 0-0.001 0-0.621 0-1.125 0.504-1.125 1.125 0 0.583 0.443 1.062 1.011 1.12l0.005 0h0.073c0.019 0.001 0.042 0.002 0.065 0.002 0.588 0 1.070-0.459 1.105-1.039l0-0.003v-0.061c0-0.005 0-0.011 0-0.017 0-0.615-0.493-1.115-1.106-1.126h-0.001zM15.979 14.876c-0.011-0-0.023-0.001-0.035-0.001-0.582 0-1.056 0.462-1.077 1.039l-0 0.002c0 0.036 0 0.067 0.005 0.104 0 0.671 0.456 1.101 1.145 1.101 0.676 0 1.101-0.443 1.101-1.137-0.007-0.671-0.456-1.115-1.14-1.108zM19.929 14.876c-0.006-0-0.013-0-0.021-0-0.622 0-1.128 0.495-1.147 1.112l-0 0.002c0 0.627 0.504 1.132 1.132 1.132h0.012c0.567 0.099 1.137-0.449 1.175-1.107 0.031-0.609-0.523-1.139-1.151-1.139z"></path>
</symbol>
<symbol id="icon-express" viewBox="0 0 32 32">
<path d="M32 24.784c-0.214 0.083-0.462 0.132-0.721 0.132-0.78 0-1.457-0.438-1.8-1.081l-0.005-0.011-4.6-6.361-0.667-0.889-5.337 7.259c-0.332 0.635-0.985 1.060-1.738 1.060-0.238 0-0.467-0.043-0.678-0.121l0.014 0.004 6.877-9.227-6.397-8.335c0.215-0.080 0.462-0.126 0.721-0.126 0.763 0 1.432 0.402 1.807 1.005l0.005 0.009 4.768 6.44 4.795-6.413c0.328-0.611 0.962-1.020 1.692-1.020 0.249 0 0.487 0.048 0.705 0.134l-0.013-0.005-2.483 3.295-3.363 4.377c-0.183 0.163-0.297 0.4-0.297 0.663s0.114 0.499 0.296 0.662l0.001 0.001 6.405 8.549zM0.003 15.435l0.56-2.767c1.539-5.471 7.811-7.747 12.125-4.36 2.527 1.985 3.157 4.796 3.033 7.964h-14.233c-0.231 5.657 3.852 9.073 9.072 7.328 1.711-0.629 2.998-2.045 3.435-3.797l0.008-0.037c0.276-0.888 0.731-1.040 1.565-0.784-0.297 2.251-1.593 4.148-3.42 5.258l-0.032 0.018c-1.159 0.646-2.541 1.026-4.013 1.026-2.219 0-4.235-0.864-5.732-2.274l0.004 0.004c-1.226-1.375-2.028-3.153-2.185-5.113l-0.002-0.031c0-0.313-0.107-0.607-0.179-0.888-0.006-0.441-0.009-0.962-0.009-1.484 0-0.022 0-0.043 0-0.065v0.003zM1.505 15.053h12.872c-0.080-4.101-2.668-7.011-6.12-7.037-3.843-0.053-6.592 2.792-6.761 7.019z"></path>
</symbol>
<symbol id="icon-cloudinary" viewBox="0 0 32 32">
<path d="M32 19.813c0 2.897-1.834 5.299-4.787 6.266l-0.133 0.042v-2.136c1.837-0.774 2.916-2.303 2.916-4.172-0.010-2.667-2.145-4.838-4.811-4.893h-0.795l-0.191-0.758c-0.937-3.866-4.385-6.599-8.363-6.627-0.012-0-0.027-0-0.041-0-3.386 0-6.31 1.974-7.685 4.834l-0.022 0.051-0.244 0.501-0.557 0.058c-1.87 0.206-3.459 1.258-4.392 2.759l-0.015 0.025c-1.707 2.781-0.837 6.419 1.944 8.126v2.253h-0.013l-0.199-0.090c-2.325-1.087-4.011-3.206-4.48-5.75l-0.007-0.049c-0.772-4.305 2.093-8.421 6.399-9.193 1.809-3.318 5.272-5.532 9.252-5.532 0.021 0 0.042 0 0.063 0h-0.003c4.63 0.033 8.713 3.040 10.12 7.451 3.439 0.449 6.018 3.366 6.044 6.833zM11.577 18.050h0.753c0.048-0.001 0.086-0.040 0.086-0.087 0-0.024-0.009-0.045-0.025-0.061l-2.946-2.949c-0.016-0.016-0.037-0.025-0.061-0.025s-0.046 0.010-0.062 0.026v0l-2.947 2.948c-0.015 0.016-0.025 0.037-0.025 0.061 0 0.048 0.039 0.087 0.087 0.087 0 0 0.001 0 0.001 0h0.742c0 0 0 0 0 0 0.048 0 0.087 0.039 0.087 0.087 0 0 0 0 0 0v0 6.743c0 0.878 0.712 1.59 1.59 1.59h3.472c0.048-0.001 0.086-0.040 0.086-0.087 0-0.024-0.009-0.045-0.025-0.061l-0.44-0.44c-0.286-0.287-0.463-0.682-0.464-1.118v-6.627c0.002-0.049 0.041-0.087 0.090-0.087 0 0 0 0 0 0v0zM24.602 21.446h0.756c0 0 0.001 0 0.001 0 0.048 0 0.087-0.039 0.087-0.087 0-0.025-0.011-0.048-0.028-0.064l-0-0-2.95-2.947c-0.015-0.015-0.036-0.024-0.059-0.024-0.024 0-0.046 0.010-0.061 0.026l-2.948 2.945c-0.017 0.016-0.027 0.038-0.027 0.063 0 0.048 0.039 0.088 0.088 0.088 0 0 0 0 0.001 0h0.742c0.048 0 0.087 0.039 0.087 0.087v0 3.348c0 0.878 0.712 1.59 1.59 1.59h3.475c0.048-0.001 0.086-0.040 0.086-0.087 0-0.024-0.009-0.045-0.025-0.061v0l-0.44-0.44c-0.286-0.287-0.463-0.682-0.464-1.118v-3.231c0 0 0 0 0 0 0-0.048 0.039-0.087 0.087-0.087 0 0 0 0 0 0v0zM18.089 19.747h0.753c0 0 0.001 0 0.001 0 0.048 0 0.087-0.039 0.087-0.087 0-0.024-0.009-0.045-0.025-0.061l0 0-2.948-2.938c-0.016-0.016-0.037-0.025-0.061-0.025s-0.046 0.010-0.062 0.026v0l-2.945 2.942c-0.015 0.016-0.025 0.037-0.025 0.061 0 0.048 0.038 0.086 0.086 0.087h0.75c0.049 0.001 0.088 0.041 0.088 0.090 0 0 0 0 0 0v0 5.039c0 0.878 0.712 1.59 1.59 1.59h3.464c0 0 0.001 0 0.001 0 0.048 0 0.087-0.039 0.087-0.087 0-0.024-0.009-0.045-0.025-0.061l0 0-0.443-0.44c-0.285-0.287-0.461-0.682-0.461-1.119v-4.928c0-0.049 0.039-0.089 0.088-0.090z"></path>
</symbol>
<symbol id="icon-axios" viewBox="0 0 32 32">
<path d="M14.758 3.866v25.863l-2.819 2.27v-21.515h-5.306l8.124-6.619zM19.912 0v21.023h5.454l-8.267 6.785v-25.849l2.813-1.959z"></path>
</symbol>
<symbol id="icon-github" viewBox="0 0 32 32">
<path d="M16 0.396c-8.84 0-16 7.164-16 16 0 7.071 4.584 13.067 10.94 15.18 0.8 0.151 1.093-0.344 1.093-0.769 0-0.38-0.013-1.387-0.020-2.72-4.451 0.965-5.389-2.147-5.389-2.147-0.728-1.847-1.78-2.34-1.78-2.34-1.449-0.992 0.112-0.972 0.112-0.972 1.607 0.112 2.451 1.648 2.451 1.648 1.427 2.447 3.745 1.74 4.66 1.331 0.144-1.035 0.556-1.74 1.013-2.14-3.553-0.4-7.288-1.776-7.288-7.907 0-1.747 0.62-3.173 1.647-4.293-0.18-0.404-0.72-2.031 0.14-4.235 0 0 1.34-0.429 4.4 1.64 1.28-0.356 2.64-0.532 4-0.54 1.36 0.008 2.72 0.184 4 0.54 3.040-2.069 4.38-1.64 4.38-1.64 0.86 2.204 0.32 3.831 0.16 4.235 1.020 1.12 1.64 2.547 1.64 4.293 0 6.147-3.74 7.5-7.3 7.893 0.56 0.48 1.080 1.461 1.080 2.96 0 2.141-0.020 3.861-0.020 4.381 0 0.42 0.28 0.92 1.1 0.76 6.401-2.099 10.981-8.099 10.981-15.159 0-8.836-7.164-16-16-16z"></path>
</symbol>
<symbol id="icon-git" viewBox="0 0 32 32">
<path d="M31.395 14.573l-13.972-13.971c-0.805-0.804-2.109-0.804-2.917 0l-2.895 2.9 3.68 3.68c0.86-0.287 1.839-0.093 2.519 0.588 0.688 0.687 0.877 1.677 0.584 2.533l3.544 3.547c0.86-0.297 1.849-0.104 2.533 0.58 0.961 0.96 0.961 2.512 0 3.472-0.959 0.959-2.508 0.959-3.467 0-0.719-0.721-0.899-1.783-0.539-2.661l-3.319-3.301v8.7c0.235 0.115 0.456 0.271 0.651 0.464 0.951 0.961 0.951 2.511 0 3.467-0.959 0.961-2.519 0.961-3.479 0-0.959-0.959-0.959-2.505 0-3.464 0.243-0.24 0.516-0.421 0.807-0.541v-8.785c-0.289-0.121-0.565-0.296-0.8-0.535-0.727-0.727-0.901-1.789-0.528-2.679l-3.616-3.633-9.581 9.575c-0.8 0.807-0.8 2.112 0 2.919l13.973 13.969c0.805 0.805 2.109 0.805 2.915 0l13.907-13.907c0.807-0.804 0.807-2.109 0-2.916z"></path>
</symbol>
<symbol id="icon-postgresql" viewBox="0 0 32 32">
<path d="M31.413 19.63c-0.020-0.061-0.046-0.113-0.077-0.162l0.002 0.003c-0.185-0.351-0.636-0.456-1.343-0.309-2.204 0.455-3.058 0.175-3.367-0.025 1.789-2.731 3.26-6.029 4.055-9.106 0.362-1.401 1.064-4.698 0.163-6.309-0.063-0.12-0.13-0.222-0.205-0.318l0.003 0.005c-1.719-2.197-4.242-3.375-7.297-3.408-1.993-0.021-3.694 0.461-4.155 0.639-0.153-0.032-0.387-0.070-0.623-0.102l-0.065-0.007c-0.52-0.099-1.124-0.161-1.74-0.17l-0.009-0c-1.576-0.025-2.938 0.352-4.066 1.121-1.143-0.428-6.385-2.193-9.629 0.105-1.812 1.284-2.648 3.578-2.486 6.819 0.055 1.091 0.676 4.445 1.656 7.658 0.613 2.009 1.252 3.603 1.911 4.776 0.737 1.326 1.501 2.124 2.286 2.386 0.597 0.199 1.51 0.192 2.477-0.971 1.068-1.285 2.12-2.434 2.593-2.943 0.58 0.314 1.209 0.483 1.853 0.503 0 0.002 0 0.004 0.001 0.006l-0-0c-0.092 0.109-0.2 0.241-0.306 0.375l-0.024 0.032c-0.452 0.574-0.546 0.693-2 0.992-0.414 0.085-1.513 0.312-1.529 1.082-0.003 0.163 0.044 0.308 0.123 0.436 0.303 0.564 1.229 0.813 1.353 0.844 1.779 0.445 3.339 0.123 4.495-0.905-0.023 2.975 0.103 5.89 0.461 6.783 0.295 0.737 1.016 2.539 3.292 2.539 0.334 0 0.702-0.039 1.106-0.125 2.376-0.509 3.408-1.559 3.807-3.875 0.2-1.161 0.535-3.834 0.718-5.468 0.023-0.094 0.048-0.161 0.076-0.182 0.001-0.001 0.093-0.063 0.57 0.041 0.016 0.004 0.037 0.007 0.057 0.009l0.002 0 0.339 0.030 0.020 0.001c1.129 0.051 2.549-0.19 3.375-0.574 0.858-0.398 2.408-1.376 2.127-2.226zM3.161 15.835c-0.991-3.248-1.571-6.513-1.616-7.429-0.145-2.895 0.556-4.911 2.083-5.99 2.449-1.731 6.453-0.721 8.144-0.173-0.004 0.004-0.009 0.008-0.013 0.013-2.698 2.725-2.634 7.381-2.628 7.666-0 0.11 0.009 0.265 0.022 0.479 0.046 0.783 0.133 2.241-0.098 3.891-0.215 1.534 0.258 3.035 1.297 4.119 0.107 0.112 0.22 0.217 0.336 0.317-0.462 0.495-1.467 1.59-2.537 2.877-0.757 0.91-1.28 0.736-1.451 0.678-0.523-0.174-1.084-0.783-1.651-1.763-0.639-1.119-1.285-2.709-1.887-4.683zM11.171 22.618c-0.228-0.057-0.436-0.151-0.576-0.236 0.119-0.053 0.317-0.12 0.644-0.188 1.711-0.352 1.975-0.601 2.552-1.334 0.132-0.168 0.282-0.358 0.49-0.59 0.043-0.048 0.077-0.106 0.097-0.17l0.001-0.003c0.228-0.202 0.363-0.147 0.583-0.056 0.208 0.086 0.41 0.347 0.493 0.634 0.039 0.135 0.083 0.393-0.060 0.593-1.206 1.688-2.962 1.666-4.223 1.35zM13.963 17.301l-0.070 0.188c-0.177 0.475-0.342 0.917-0.445 1.337-0.89-0.003-1.756-0.383-2.414-1.070-0.837-0.873-1.217-2.089-1.043-3.334 0.244-1.744 0.154-3.262 0.105-4.078-0.007-0.114-0.013-0.214-0.016-0.293 0.394-0.349 2.221-1.328 3.524-1.030 0.595 0.136 0.957 0.541 1.107 1.237 0.779 3.605 0.103 5.108-0.44 6.315-0.112 0.249-0.218 0.484-0.308 0.727zM23.781 23.397c-0.023 0.236-0.048 0.501-0.082 0.795l-0.195 0.584c-0.015 0.043-0.024 0.092-0.024 0.143v0c-0.008 0.633-0.072 0.865-0.153 1.159-0.085 0.306-0.18 0.652-0.239 1.41-0.147 1.886-1.171 2.969-3.223 3.409-2.021 0.433-2.379-0.662-2.695-1.629-0.051-0.163-0.086-0.264-0.122-0.363l0.020 0.061c-0.287-0.781-0.255-1.883-0.21-3.407 0.022-0.748-0.033-2.535-0.44-3.528 0.006-0.391 0.014-0.788 0.025-1.189 0-0.004 0-0.008 0-0.013 0-0.049-0.008-0.096-0.021-0.141l0.001 0.003c-0.015-0.107-0.035-0.2-0.062-0.291l0.004 0.014c-0.163-0.571-0.562-1.049-1.040-1.247-0.19-0.079-0.538-0.223-0.957-0.116 0.089-0.368 0.244-0.783 0.412-1.233l0.071-0.189c0.079-0.213 0.179-0.434 0.284-0.668 0.569-1.263 1.347-2.994 0.502-6.903-0.317-1.464-1.374-2.179-2.977-2.013-0.961 0.099-1.84 0.487-2.278 0.709-0.129 0.064-0.214 0.111-0.299 0.158l0.038-0.020c0.122-1.475 0.585-4.232 2.314-5.976 0.126-0.127 0.258-0.247 0.395-0.361l0.009-0.007c0.074-0.015 0.139-0.045 0.194-0.087l-0.001 0.001c1.003-0.761 2.259-1.134 3.736-1.11 0.545 0.009 1.069 0.045 1.566 0.108 2.585 0.473 4.325 1.929 5.381 3.177 1.086 1.283 1.674 2.575 1.908 3.272-1.764-0.179-2.965 0.169-3.573 1.039-1.323 1.892 0.724 5.564 1.708 7.329 0.18 0.323 0.336 0.603 0.385 0.722 0.32 0.777 0.735 1.295 1.038 1.674 0.093 0.116 0.183 0.229 0.251 0.327-0.534 0.154-1.494 0.51-1.407 2.289-0.016 0.208-0.056 0.596-0.111 1.086-0.061 0.277-0.094 0.614-0.133 1.022zM24.969 21.236c-0.054-1.109 0.359-1.225 0.796-1.347 0.087-0.023 0.148-0.042 0.207-0.062l-0.027 0.008c0.053 0.047 0.112 0.093 0.173 0.134l0.006 0.004c0.76 0.502 2.11 0.562 4.009 0.179-0.269 0.236-0.692 0.533-1.271 0.801-0.546 0.254-1.461 0.444-2.33 0.485-0.96 0.045-1.448-0.108-1.563-0.201zM25.728 8.874c-0.008 0.468-0.072 0.892-0.141 1.336-0.073 0.477-0.149 0.97-0.169 1.568-0.019 0.582 0.054 1.188 0.124 1.773 0.142 1.183 0.288 2.4-0.277 3.602-0.081-0.14-0.165-0.309-0.239-0.483l-0.012-0.031c-0.070-0.17-0.223-0.443-0.433-0.822-0.821-1.472-2.743-4.919-1.759-6.326 0.506-0.724 1.788-0.755 2.904-0.617zM26.032 18.226c-0.063-0.081-0.101-0.128-0.138-0.174l0.024 0.031-0.047-0.059c0.968-1.599 0.779-3.182 0.61-4.585-0.069-0.576-0.135-1.119-0.118-1.63 0.017-0.541 0.089-1.006 0.158-1.455 0.085-0.553 0.172-1.126 0.148-1.801 0.018-0.071 0.025-0.154 0.016-0.254-0.061-0.647-0.8-2.584-2.306-4.337-0.81-0.943-1.986-1.996-3.585-2.719 0.7-0.142 1.644-0.271 2.699-0.248 2.735 0.061 4.899 1.085 6.432 3.043 0.030 0.039 0.059 0.082 0.086 0.128l0.003 0.006c0.964 1.807-0.368 8.367-3.982 14.054zM14.277 10.071c-0.033 0.239-0.412 0.563-0.828 0.563-0 0-0 0-0 0-0.038 0-0.075-0.003-0.112-0.008l0.004 0.001c-0.25-0.035-0.502-0.192-0.675-0.421-0.061-0.081-0.16-0.237-0.141-0.379 0.007-0.053 0.035-0.131 0.123-0.198 0.158-0.119 0.469-0.163 0.813-0.116 0.422 0.059 0.857 0.258 0.815 0.558zM24.851 9.523c0.015 0.106-0.065 0.268-0.204 0.414-0.091 0.096-0.283 0.261-0.544 0.298-0.030 0.004-0.065 0.007-0.1 0.007v0c-0.391 0-0.722-0.313-0.748-0.496-0.032-0.235 0.352-0.414 0.748-0.469s0.815 0.012 0.847 0.247z"></path>
</symbol>
<symbol id="icon-mongoose" viewBox="0 0 32 32">
<path d="M18.685 9.827c-0.048-0.001-0.105-0.001-0.161-0.001-0.322 0-0.642 0.012-0.958 0.037l0.042-0.003c-0.291 0.023-0.579 0.096-0.867 0.147 0.305 0.157 0.608 0.284 0.907 0.42 0.3 0.137 0.581 0.309 0.839 0.516-0.337-0.129-0.665-0.277-1.003-0.397-0.621-0.241-1.35-0.437-2.105-0.554l-0.060-0.008c-0.364-0.049-0.728-0.097-1.092 0.007-0.368 0.104-0.472 0.24-0.507 0.611-0.053 0.613 0.131 1.183 0.375 1.731 0.379 0.832 0.913 1.532 1.571 2.090l0.009 0.007c0.521 0.447 1.1 0.797 1.74 1.049 0.181 0.071 0.365 0.137 0.548 0.207l-0.012 0.043c-0.351-0.096-0.709-0.168-1.049-0.293-0.626-0.243-1.166-0.572-1.636-0.979l0.007 0.006c-0.542-0.449-0.991-0.989-1.328-1.598l-0.014-0.028c-0.349-0.619-0.56-1.356-0.573-2.142l-0-0.004-0.016 0.007c-6.819-0.712-12.804 4.764-13.293 5.224l-0.045 0.019c-0.003 0.007 0 0.013 0.004 0.021l-0.005 0.005 0.007-0.003c0.005 0.011 0.013 0.021 0.017 0.032 0.116-0.025 0.231-0.056 0.347-0.072l0.092-0.013c0.432-0.153 0.873-0.273 1.329-0.337 0.645-0.092 1.313-0.212 1.973-0.208 0.624 0.003 1.257 0.099 1.869 0.204 0.172 0.029 0.34 0.069 0.507 0.116 0.447 0.1 0.867 0.28 1.244 0.521l0.080 0.040c0.537 0.253 1.011 0.627 1.384 1.081 0.069 0.076 0.188 0.155 0.249 0.237 0.128 0.152 0.189 0.315 0.404 0.484v-2.316h2.68l1.252 2.311 1.256-2.311h2.76v4.476l0.457-0.301s0.5-1.333 2.821-1.52l2.661-0.085c-0.411-0.849-0.409-0.849-0.212-1.107 0.196-0.253 1.707-0.419 1.973-0.577l3.883-0.784c0.009-0.029 0.020 0.016 0.040 0.009 0.096-0.029 0.196-0.049 0.333-0.081l0.88-0.213c0.056-0.033 0.124-0.045 0.187-0.067 0.411-0.143 0.769-0.327 0.968-0.764 0.193-0.425 0.452-0.821 0.547-1.289 0.029-0.148 0.004-0.277-0.104-0.384-0.129-0.128-0.296-0.184-0.467-0.228-0.561-0.231-1.12-0.467-1.685-0.684-0.348-0.135-0.705-0.247-1.060-0.36-0.063-0.033-0.415-0.144-0.77-0.25l-0.289-0.074c-0.325-0.096-0.653-0.184-0.981-0.273-0.32-0.088-0.64-0.177-0.96-0.256-0.376-0.093-0.753-0.173-1.129-0.26-0.287-0.067-0.571-0.136-0.859-0.195-0.312-0.063-0.627-0.119-0.941-0.173-0.403-0.071-0.803-0.149-1.207-0.204-0.488-0.067-0.979-0.109-1.468-0.167-0.46-0.053-0.921-0.087-1.384-0.093zM14.281 10.849c0.004-0 0.008-0 0.012-0 0.022 0 0.044 0.004 0.064 0.010l-0.001-0c0.56 0.173 1.107 0.369 1.621 0.655 0.487 0.271 0.927 0.6 1.305 1.008 0.016 0.017 0.027 0.037 0.048 0.067l-0.86-0.391-0.028 0.035 0.493 0.735-0.029 0.029c-0.252-0.189-0.548-0.336-0.868-0.425l-0.019-0.004-0.027 0.027 0.844 0.987-0.555-0.181-0.023 0.027c0.217 0.36 0.501 0.673 0.773 1.033-0.472-0.267-0.887-0.56-1.275-0.892-0.533-0.443-0.981-0.965-1.332-1.553l-0.015-0.027c-0.143-0.253-0.268-0.513-0.296-0.808-0.002-0.016-0.002-0.036-0.002-0.055 0-0.051 0.006-0.101 0.018-0.149l-0.001 0.004c0.016-0.071 0.076-0.125 0.15-0.129l0-0zM21.513 11.74c0.205 0.003 0.415-0.008 0.619 0.020 0.371 0.049 0.74 0.123 1.109 0.187 0.211 0.036 0.423 0.069 0.632 0.115 0.396 0.085 0.792 0.177 1.187 0.267 0.261 0.061 0.523 0.123 0.783 0.187l-0.439 0.215c-0.487 0.036-0.975 0.073-1.463 0.076-0.32-0.002-0.63-0.038-0.929-0.104l0.029 0.005c-0.373-0.077-0.685-0.261-0.869-0.621-0.027-0.053-0.12-0.084-0.187-0.104-0.24-0.072-0.483-0.133-0.725-0.224 0.084-0.007 0.168-0.019 0.253-0.017zM25.811 15.253l0.007 0.027c-0.107 0.029-0.213 0.056-0.319 0.089-0.607 0.187-1.221 0.355-1.817 0.571-0.373 0.135-0.725 0.333-1.080 0.517-0.311 0.159-0.42 0.429-0.383 0.767 0.025 0.216 0.053 0.432 0.073 0.651-0.185-0.265-0.32-0.58-0.382-0.92l-0.002-0.015c-0.047-0.225 0.077-0.364 0.24-0.487 0.317-0.237 0.661-0.424 1.036-0.547 0.467-0.156 0.936-0.311 1.412-0.433 0.335-0.087 0.684-0.12 1.027-0.177 0.064-0.011 0.125-0.028 0.188-0.043zM12.188 18.607v3.568h2.492l0.085-0.088v-3.48l-1.293 1.993z"></path>
</symbol>
<symbol id="icon-mongodb" viewBox="0 0 32 32">
<path d="M22.924 12.74c-1.685-7.44-5.669-9.885-6.097-10.82-0.373-0.525-0.707-1.272-0.98-1.92-0.048 0.66-0.073 0.913-0.697 1.579-0.964 0.755-5.917 4.909-6.32 13.36-0.376 7.883 5.693 12.58 6.517 13.179l0.093 0.067c0.122 0.786 0.278 2.095 0.408 3.411l0.032 0.405h0.641c0.152-1.376 0.379-2.741 0.68-4.093 0.556-0.395 0.805-0.617 1.133-0.924 2.989-2.771 4.853-6.718 4.853-11.101 0-0.065-0-0.13-0.001-0.194l0 0.010c0.013-1.085-0.137-2.216-0.263-2.957zM15.809 23.667s0-11.055 0.367-11.053c0.284 0 0.653 14.26 0.653 14.26-0.508-0.060-1.020-2.347-1.020-3.207z"></path>
</symbol>
<symbol id="icon-nodedotjs" viewBox="0 0 32 32">
<path d="M15.997 32c-0.428 0-0.855-0.112-1.229-0.329l-3.915-2.316c-0.584-0.327-0.299-0.443-0.107-0.511 0.78-0.271 0.937-0.333 1.771-0.805 0.087-0.049 0.201-0.031 0.291 0.023l3.008 1.785c0.109 0.060 0.263 0.060 0.363 0l11.727-6.768c0.109-0.063 0.179-0.188 0.179-0.317v-13.533c0-0.132-0.071-0.256-0.183-0.323l-11.721-6.763c-0.108-0.063-0.252-0.063-0.361 0l-11.719 6.764c-0.113 0.065-0.185 0.193-0.185 0.321v13.533c0 0.129 0.072 0.252 0.185 0.313l3.212 1.856c1.743 0.872 2.811-0.155 2.811-1.187v-13.361c0-0.189 0.152-0.337 0.341-0.337h1.487c0.185 0 0.34 0.149 0.34 0.337v13.361c0 2.327-1.267 3.66-3.472 3.66-0.677 0-1.212 0-2.701-0.735l-3.077-1.769c-0.76-0.439-1.229-1.26-1.229-2.139v-13.533c0-0.879 0.471-1.7 1.229-2.137l11.727-6.776c0.743-0.42 1.728-0.42 2.464 0l11.725 6.776c0.76 0.439 1.232 1.259 1.232 2.137v13.533c0 0.879-0.472 1.697-1.232 2.139l-11.725 6.771c-0.373 0.217-0.799 0.329-1.233 0.329zM25.465 18.657c0-2.533-1.712-3.208-5.316-3.684-3.641-0.481-4.012-0.731-4.012-1.583 0-0.704 0.313-1.644 3.011-1.644 2.409 0 3.297 0.519 3.663 2.143 0.032 0.153 0.172 0.265 0.329 0.265h1.521c0.095 0 0.184-0.041 0.248-0.108 0.064-0.072 0.099-0.164 0.089-0.261-0.236-2.797-2.095-4.101-5.851-4.101-3.344 0-5.339 1.411-5.339 3.777 0 2.567 1.984 3.276 5.193 3.593 3.84 0.376 4.137 0.937 4.137 1.692 0 1.311-1.052 1.869-3.523 1.869-3.103 0-3.785-0.779-4.015-2.323-0.027-0.165-0.168-0.287-0.337-0.287h-1.516c-0.188 0-0.339 0.149-0.339 0.337 0 1.976 1.075 4.331 6.207 4.331 3.717 0.001 5.848-1.461 5.848-4.017z"></path>
</symbol>
<symbol id="icon-vuedotjs" viewBox="0 0 32 32">
<path d="M32 2.147h-13.253l-2.747 4.733-2.747-4.733h-13.253l16 27.707zM16 18.773l-9.12-15.8h5.907l3.213 5.573 3.213-5.573h5.907z"></path>
</symbol>
<symbol id="icon-nextdotjs" viewBox="0 0 32 32">
<path d="M24.887 29.304c-2.543 1.703-5.6 2.696-8.887 2.696-8.831 0-16-7.169-16-16s7.169-16 16-16 16 7.169 16 16c0 4.777-2.099 9.068-5.423 12.001l-14.285-18.401h-2.692v12.795h2.153v-10.060l13.133 16.969zM20.444 17.927l2.133 2.748v-11.075h-2.133v8.327z"></path>
</symbol>
<symbol id="icon-redux" viewBox="0 0 32 32">
<path d="M22.179 22.005c1.16-0.1 2.057-1.12 2-2.339-0.063-1.219-1.061-2.197-2.279-2.197h-0.081c-1.224 0.045-2.199 1.048-2.199 2.279 0 0.028 0 0.056 0.002 0.084l-0-0.004c0.040 0.639 0.301 1.159 0.659 1.537-1.397 2.717-3.495 4.715-6.673 6.393-2.137 1.117-4.395 1.539-6.592 1.24-1.837-0.26-3.275-1.080-4.155-2.399-1.317-1.999-1.437-4.155-0.34-6.312 0.8-1.56 1.999-2.697 2.799-3.257-0.216-0.573-0.409-1.263-0.547-1.974l-0.013-0.083c-5.916 4.237-5.313 10.029-3.516 12.767 1.339 1.997 4.076 3.275 7.072 3.275 0.8 0 1.64-0.059 2.457-0.259 5.196-0.999 9.131-4.115 11.388-8.709zM29.309 17.011c-3.093-3.637-7.651-5.635-12.845-5.635h-0.68c-0.337-0.739-1.116-1.199-1.997-1.199h-0.060c-1.257 0-2.237 1.080-2.196 2.337 0.040 1.197 1.059 2.197 2.277 2.197h0.099c0.902-0.036 1.664-0.597 1.993-1.384l0.005-0.015h0.74c3.079 0 5.993 0.899 8.651 2.656 2.036 1.34 3.496 3.097 4.316 5.196 0.717 1.717 0.679 3.396-0.060 4.796-1.14 2.196-3.059 3.356-5.595 3.356-1.599 0-3.156-0.5-3.956-0.859-0.48 0.397-1.28 1.057-1.859 1.457 1.757 0.797 3.536 1.257 5.253 1.257 3.896 0 6.792-2.196 7.892-4.315 1.197-2.397 1.099-6.432-1.96-9.888zM8.653 22.723c0.040 1.199 1.057 2.197 2.277 2.197h0.080c1.221-0.028 2.2-1.025 2.2-2.25 0-0.038-0.001-0.075-0.003-0.113l0 0.005c0-1.2-1.039-2.196-2.257-2.196h-0.080c-0.080 0-0.2 0-0.301 0.039-1.657-2.797-2.357-5.796-2.096-9.029 0.16-2.437 0.96-4.556 2.396-6.313 1.2-1.499 3.457-2.24 4.996-2.277 4.315-0.081 6.113 5.295 6.252 7.432l1.997 0.6c-0.46-6.555-4.533-9.991-8.429-9.991-3.659 0-7.032 2.657-8.392 6.553-1.857 5.193-0.639 10.189 1.64 14.185-0.2 0.26-0.32 0.719-0.28 1.157z"></path>
</symbol>
<symbol id="icon-react" viewBox="0 0 32 32">
<path d="M18.973 16.005c0 1.646-1.334 2.981-2.98 2.981h-0c-1.647 0-2.981-1.335-2.981-2.981v0c0-1.646 1.334-2.981 2.98-2.981h0c1.647 0 2.981 1.335 2.981 2.981v0zM22.504 1.752c-1.795 0-4.143 1.28-6.517 3.496-2.373-2.204-4.723-3.469-6.516-3.469-0.547 0-1.044 0.124-1.475 0.371-1.833 1.057-2.244 4.352-1.297 8.487-4.059 1.253-6.699 3.257-6.699 5.369 0 2.12 2.653 4.129 6.724 5.373-0.939 4.151-0.52 7.451 1.317 8.507 0.427 0.249 0.92 0.367 1.469 0.367 1.793 0 4.143-1.28 6.517-3.499 2.373 2.205 4.723 3.471 6.516 3.471 0.547 0 1.044-0.12 1.475-0.367 1.832-1.056 2.244-4.351 1.297-8.487 4.044-1.243 6.684-3.251 6.684-5.365 0-2.12-2.653-4.129-6.724-5.376 0.939-4.147 0.52-7.449-1.317-8.507-0.424-0.245-0.917-0.369-1.456-0.371zM22.497 3.205v0.008c0.3 0 0.541 0.059 0.744 0.169 0.888 0.509 1.273 2.447 0.973 4.939-0.072 0.613-0.189 1.26-0.333 1.92-1.28-0.315-2.675-0.556-4.143-0.712-0.88-1.207-1.793-2.303-2.713-3.263 2.123-1.973 4.116-3.056 5.473-3.060zM9.471 3.232c1.349 0 3.352 1.077 5.48 3.040-0.915 0.96-1.827 2.049-2.693 3.256-1.476 0.156-2.872 0.397-4.151 0.717-0.149-0.653-0.26-1.285-0.339-1.893-0.307-2.491 0.072-4.427 0.952-4.943 0.253-0.12 0.533-0.169 0.751-0.176zM15.98 7.299c0.607 0.624 1.213 1.323 1.813 2.085-0.587-0.027-1.187-0.045-1.793-0.045-0.613 0-1.22 0.013-1.813 0.045 0.587-0.763 1.193-1.461 1.793-2.087zM16 10.8c0.987 0 1.969 0.045 2.936 0.124 0.541 0.776 1.069 1.604 1.577 2.48 0.496 0.853 0.947 1.72 1.357 2.595-0.411 0.873-0.861 1.747-1.351 2.6-0.507 0.88-1.031 1.717-1.573 2.493-0.971 0.084-1.955 0.131-2.947 0.131-0.987 0-1.969-0.047-2.936-0.124-0.541-0.776-1.069-1.605-1.577-2.48-0.496-0.853-0.947-1.72-1.357-2.595 0.404-0.876 0.861-1.751 1.351-2.605 0.507-0.88 1.031-1.715 1.573-2.491 0.971-0.085 1.955-0.131 2.947-0.131zM11.153 11.139c-0.32 0.503-0.64 1.017-0.939 1.547-0.3 0.52-0.58 1.043-0.847 1.565-0.353-0.875-0.653-1.747-0.901-2.596 0.853-0.2 1.753-0.377 2.687-0.515zM20.833 11.139c0.927 0.137 1.82 0.307 2.675 0.516-0.24 0.843-0.54 1.709-0.88 2.577-0.267-0.52-0.547-1.044-0.853-1.565-0.3-0.523-0.62-1.032-0.94-1.528zM24.917 12.039c0.645 0.2 1.259 0.423 1.833 0.664 2.309 0.987 3.803 2.277 3.803 3.301-0.007 1.024-1.5 2.32-3.809 3.3-0.56 0.24-1.173 0.456-1.807 0.657-0.373-1.277-0.861-2.608-1.467-3.973 0.6-1.356 1.080-2.68 1.447-3.952zM7.057 12.044c0.371 1.28 0.86 2.609 1.467 3.973-0.6 1.356-1.083 2.68-1.448 3.952-0.645-0.2-1.259-0.424-1.827-0.667-2.309-0.983-3.803-2.275-3.803-3.299s1.493-2.323 3.803-3.301c0.56-0.24 1.173-0.456 1.808-0.659zM22.628 17.751c0.353 0.876 0.653 1.749 0.901 2.597-0.853 0.209-1.755 0.387-2.688 0.52 0.32-0.5 0.64-1.016 0.94-1.544 0.3-0.52 0.58-1.051 0.848-1.573zM9.368 17.777c0.267 0.523 0.547 1.044 0.853 1.567 0.307 0.52 0.62 1.029 0.94 1.524-0.927-0.136-1.82-0.307-2.675-0.515 0.24-0.84 0.541-1.709 0.88-2.577zM23.893 21.76c0.149 0.657 0.267 1.291 0.339 1.897 0.307 2.491-0.072 4.427-0.952 4.944-0.196 0.12-0.451 0.171-0.751 0.171-1.349 0-3.352-1.076-5.48-3.040 0.915-0.96 1.827-2.048 2.693-3.253 1.476-0.157 2.872-0.4 4.151-0.72zM8.12 21.773c1.28 0.312 2.675 0.553 4.143 0.709 0.88 1.207 1.793 2.303 2.713 3.261-2.127 1.977-4.123 3.060-5.48 3.060-0.293-0.007-0.541-0.067-0.737-0.176-0.888-0.507-1.273-2.445-0.973-4.937 0.072-0.613 0.189-1.259 0.333-1.917zM14.2 22.627c0.587 0.027 1.187 0.045 1.793 0.045 0.613 0 1.22-0.013 1.813-0.045-0.587 0.763-1.193 1.46-1.793 2.087-0.607-0.627-1.213-1.324-1.813-2.087z"></path>
</symbol>
<symbol id="icon-tailwindcss" viewBox="0 0 32 32">
<path d="M16.001 6.4c-4.267 0-6.933 2.133-8 6.4 1.6-2.133 3.467-2.933 5.6-2.4 1.217 0.304 2.087 1.187 3.051 2.165 1.569 1.592 3.384 3.435 7.349 3.435 4.267 0 6.933-2.133 8-6.4-1.6 2.133-3.467 2.933-5.6 2.4-1.217-0.304-2.087-1.187-3.051-2.165-1.568-1.592-3.383-3.435-7.349-3.435zM8.001 16c-4.267 0-6.933 2.133-8 6.4 1.6-2.133 3.467-2.933 5.6-2.4 1.217 0.304 2.087 1.187 3.051 2.165 1.569 1.592 3.384 3.435 7.349 3.435 4.267 0 6.933-2.133 8-6.4-1.6 2.133-3.467 2.933-5.6 2.4-1.217-0.304-2.087-1.187-3.051-2.165-1.568-1.592-3.383-3.435-7.349-3.435z"></path>
</symbol>
<symbol id="icon-css" viewBox="0 0 32 32">
<path d="M0 0v26.88c0 2.828 2.292 5.12 5.12 5.12v0h21.76c2.828 0 5.12-2.292 5.12-5.12v0-21.76c0-2.828-2.292-5.12-5.12-5.12v0zM19.008 17.44c2.080 0 3.040 1.44 3.072 3.52h-2.144c0.032-0.384-0.064-0.8-0.192-1.12-0.128-0.256-0.384-0.352-0.736-0.352-0.608 0-0.928 0.352-0.928 1.12-0.032 0.768 0.384 1.184 1.024 1.44 0.96 0.384 2.144 0.992 2.56 1.728q0.576 0.864 0.576 2.208c0 2.144-1.216 3.456-3.328 3.456-2.208 0-3.2-1.376-3.232-3.584h2.24c0 1.056 0.352 1.568 1.056 1.568 0.352 0 0.608-0.096 0.736-0.32 0.256-0.416 0.32-1.568-0.064-2.016-0.416-0.544-1.216-0.8-1.76-1.088q-1.104-0.528-1.632-1.248c-0.32-0.48-0.48-1.184-0.48-2.048 0-1.92 1.248-3.296 3.232-3.264zM26.208 17.44c2.112 0 3.072 1.44 3.104 3.52h-2.144c0-0.384-0.064-0.8-0.224-1.12-0.128-0.256-0.352-0.352-0.704-0.352-0.64 0-0.96 0.352-0.96 1.12s0.384 1.184 1.056 1.44c0.928 0.384 2.144 0.992 2.56 1.728 0.352 0.576 0.544 1.312 0.544 2.208 0.032 2.144-1.184 3.456-3.296 3.456-2.24 0-3.232-1.408-3.264-3.584h2.24c0 0.992 0.352 1.568 1.056 1.568 0.352 0 0.608-0.096 0.736-0.32 0.288-0.416 0.352-1.568-0.064-2.016-0.384-0.544-1.184-0.8-1.76-1.088-0.736-0.352-1.28-0.768-1.6-1.248s-0.48-1.184-0.48-2.048c-0.032-1.92 1.216-3.296 3.2-3.264zM11.5 17.464c0.948-0.008 1.892 0.264 2.452 0.84 0.576 0.576 0.896 1.504 0.864 2.656h-2.368c0.032-0.608-0.128-1.056-0.576-1.28-0.416-0.192-1.024-0.064-1.184 0.32-0.16 0.352-0.256 0.768-0.224 1.152v4.672c0 0.992 0.352 1.504 1.024 1.504 0.011 0.001 0.025 0.001 0.038 0.001 0.285 0 0.538-0.138 0.696-0.351l0.002-0.002c0.224-0.32 0.256-0.736 0.224-1.12h2.368c0.128 2.176-1.312 3.616-3.424 3.584-2.048 0-3.328-1.152-3.296-3.296v-5.376c0-1.088 0.32-1.92 0.928-2.464 0.576-0.544 1.528-0.832 2.476-0.84z"></path>
</symbol>
<symbol id="icon-sass" viewBox="0 0 32 32">
<path d="M16 0c8.836 0 16 7.164 16 16s-7.164 16-16 16-16-7.164-16-16 7.164-16 16-16zM12.82 21.331c0.233 0.86 0.208 1.664-0.032 2.389l-0.087 0.24c-0.032 0.081-0.069 0.16-0.104 0.235-0.187 0.387-0.435 0.747-0.74 1.080-0.931 1.012-2.229 1.396-2.787 1.073-0.6-0.349-0.301-1.78 0.779-2.92 1.161-1.224 2.827-2.012 2.827-2.012v-0.004l0.144-0.081zM26.035 6.849c-0.723-2.844-5.436-3.779-9.896-2.193-2.652 0.943-5.525 2.424-7.591 4.356-2.457 2.295-2.848 4.295-2.687 5.131 0.569 2.948 4.609 4.876 6.271 6.307v0.008c-0.489 0.24-4.075 2.039-4.915 3.9-0.9 1.96 0.14 3.361 0.82 3.54 2.1 0.581 4.26-0.48 5.42-2.199 1.12-1.681 1.021-3.841 0.539-4.901 0.661-0.18 1.44-0.26 2.44-0.139 2.801 0.32 3.361 2.080 3.24 2.8-0.12 0.719-0.697 1.139-0.899 1.259-0.2 0.121-0.26 0.16-0.241 0.241 0.020 0.12 0.121 0.12 0.28 0.1 0.22-0.040 1.461-0.6 1.521-1.961 0.060-1.72-1.581-3.639-4.5-3.6-1.2 0.021-1.961 0.121-2.5 0.341-0.040-0.060-0.081-0.1-0.14-0.14-1.8-1.94-5.14-3.3-5-5.88 0.040-0.94 0.38-3.419 6.4-6.419 4.94-2.461 8.881-1.78 9.561-0.28 0.977 2.139-2.101 6.12-7.241 6.699-1.96 0.22-2.98-0.539-3.241-0.82-0.279-0.3-0.319-0.32-0.419-0.259-0.16 0.080-0.060 0.34 0 0.5 0.16 0.4 0.78 1.1 1.861 1.46 0.939 0.3 3.24 0.479 6-0.6 3.099-1.199 5.519-4.54 4.819-7.34l0.097 0.089z"></path>
</symbol>
<symbol id="icon-html5" viewBox="0 0 32 32">
<path d="M2 0h28l-2.547 28.751-11.484 3.249-11.419-3.251-2.551-28.749zM11.375 13l-0.309-3.624 13.412 0.004 0.307-3.496-17.568-0.004 0.931 10.68h12.168l-0.435 4.568-3.88 1.072-3.94-1.080-0.251-2.813h-3.479l0.44 5.561 7.229 1.933 7.172-1.924 0.992-10.876h-12.789z"></path>
</symbol>
<symbol id="icon-tsnode" viewBox="0 0 32 32">
<path d="M15.999 0c-0.261 0-0.523 0.067-0.757 0.204l-12.54 7.236c-0.456 0.266-0.757 0.753-0.757 1.311v0 14.489c0 0.541 0.288 1.041 0.757 1.312l7.716 4.459v-9.792h-4.087v-2.591h11.123v2.591h-4.087v11.496l1.875 1.083c0.468 0.271 1.045 0.271 1.515 0l3.089-1.784c-0.668-0.494-1.206-1.125-1.579-1.854l-0.014-0.030 2.401-1.389c0.481 0.787 1.075 1.413 1.973 1.667l2.899-1.675c-0.169-0.757-0.931-1.097-2.112-1.613l-0.737-0.317c-2.128-0.907-3.54-2.043-3.54-4.445 0-2.211 1.687-3.896 4.32-3.896 1.875 0 3.223 0.653 4.192 2.36l-2.297 1.473c-0.505-0.907-1.053-1.264-1.895-1.264-0.864 0-1.413 0.547-1.413 1.264 0 0.884 0.549 1.243 1.813 1.791l0.737 0.316c1.781 0.764 3.007 1.54 3.568 2.809l1.137-0.657c0.469-0.271 0.757-0.771 0.757-1.312v-14.487c0-0.541-0.288-1.043-0.757-1.312l-12.543-7.237c-0.217-0.128-0.478-0.204-0.757-0.204h-0z"></path>
</symbol>
<symbol id="icon-javascript" viewBox="0 0 32 32">
<path d="M0 0h32v32h-32v-32zM29.379 24.368c-0.233-1.46-1.184-2.687-4.004-3.831-0.981-0.46-2.072-0.78-2.396-1.52-0.121-0.44-0.14-0.68-0.061-0.94 0.2-0.861 1.22-1.12 2.020-0.88 0.52 0.16 1 0.56 1.301 1.2 1.379-0.901 1.379-0.901 2.34-1.5-0.36-0.56-0.539-0.801-0.781-1.040-0.84-0.94-1.959-1.42-3.779-1.379l-0.94 0.119c-0.901 0.22-1.76 0.7-2.28 1.34-1.52 1.721-1.081 4.721 0.759 5.961 1.82 1.36 4.481 1.659 4.821 2.94 0.32 1.56-1.16 2.060-2.621 1.88-1.081-0.24-1.68-0.781-2.34-1.781l-2.44 1.401c0.28 0.64 0.6 0.919 1.080 1.479 2.32 2.341 8.12 2.221 9.161-1.339 0.039-0.12 0.32-0.94 0.099-2.2l0.061 0.089zM17.401 14.708h-2.997c0 2.584-0.012 5.152-0.012 7.74 0 1.643 0.084 3.151-0.184 3.615-0.44 0.919-1.573 0.801-2.088 0.64-0.528-0.261-0.796-0.621-1.107-1.14-0.084-0.14-0.147-0.261-0.169-0.261l-2.433 1.5c0.407 0.84 1 1.563 1.765 2.023 1.14 0.68 2.672 0.9 4.276 0.54 1.044-0.301 1.944-0.921 2.415-1.881 0.68-1.24 0.536-2.76 0.529-4.461 0.016-2.739 0-5.479 0-8.239l0.005-0.075z"></path>
</symbol>
</defs>
</svg>
